<svg width="20" height="20" viewBox="0 0 20 20" fill="none" xmlns="http://www.w3.org/2000/svg">
<path d="M8.34 9.99984C8.34 9.08303 9.08318 8.33984 10 8.33984C10.9168 8.33984 11.66 9.08303 11.66 9.99984C11.66 10.9167 10.9168 11.6598 10 11.6598C9.08318 11.6598 8.34 10.9167 8.34 9.99984Z" fill="#C636D9"/>
<path d="M8.34 4.16977C8.34 3.25297 9.08318 2.50977 10 2.50977C10.9168 2.50977 11.66 3.25297 11.66 4.16977C11.66 5.08656 10.9168 5.82977 10 5.82977C9.08318 5.82977 8.34 5.08656 8.34 4.16977Z" fill="#C636D9"/>
<path d="M8.34 15.8299C8.34 14.9131 9.08318 14.1699 10 14.1699C10.9168 14.1699 11.66 14.9131 11.66 15.8299C11.66 16.7467 10.9168 17.4899 10 17.4899C9.08318 17.4899 8.34 16.7467 8.34 15.8299Z" fill="#C636D9"/>
</svg>
